<svg width="66" height="77" viewBox="0 0 66 77" fill="none" xmlns="http://www.w3.org/2000/svg">
<path d="M25 31.2624L12.5083 24L0 31.2624V45.7541L12.5083 53L25 45.7541V31.2624ZM22.3102 44.1955L12.5083 49.8662L2.7063 44.1955V32.821L12.5083 27.1338L22.3102 32.821V44.1955Z" fill="#F2AF29"/>
<path d="M52 31.2459L39.9921 24L28 31.2459V45.7376L39.9921 53L52 45.7376V31.2459Z" fill="#001011"/>
<path d="M14 55.2624V69.7542L26.5247 77L39 69.7542V55.2624L26.5247 48L14 55.2624ZM36.2643 68.2453L26.5247 73.8662L16.6368 68.2453V56.821L26.5247 51.1338L36.2973 56.821L36.2643 68.2453Z" fill="#001011"/>
<path d="M41 55.2624V69.7542L53.4917 77L66 69.7542V55.2624L53.4917 48L41 55.2624ZM63.2937 68.2453L53.4917 73.916L43.7063 68.2453V56.821L53.4917 51.1338L63.2937 56.821V68.2453Z" fill="#F2AF29"/>
<path d="M39 21.7541V7.2127L26.5413 0L14 7.2127V21.7044L26.5413 29L39 21.7541ZM16.6403 8.8708L26.5413 3.1338L36.2938 8.8708V20.2453L26.5413 25.8662L16.6403 20.1955V8.8708Z" fill="#001011"/>
<path d="M66 21.8039V7.2624L53.4917 0L41 7.2624V21.7541L53.4917 29L66 21.8039ZM43.7063 8.9205L53.4917 3.2333L63.2937 8.9205V20.295L53.4917 25.9657L43.7063 20.295V8.9205Z" fill="#F2AF29"/>
</svg>
